<svg class="svg-social-tiktok" xmlns="http://www.w3.org/2000/svg" viewBox="0 0 13.9 16">
	<g>
		<path fill="currentColor"
			d="M7.3,0H9.91a4.16,4.16,0,0,0,1.16,2.78A4.69,4.69,0,0,0,13.9,4V6.66A7,7,0,0,1,11.1,6,7.73,7.73,0,0,1,10,5.39c0,2,0,3.9,0,5.84a5.12,5.12,0,0,1-.9,2.62A5,5,0,0,1,5.17,16a4.78,4.78,0,0,1-2.72-.68A5,5,0,0,1,0,11.5c0-.33,0-.67,0-1A5,5,0,0,1,5.83,6.05c0,1,0,2,0,3a2.34,2.34,0,0,0-2,.25,2.31,2.31,0,0,0-.91,1.17,2.57,2.57,0,0,0-.09,1.07,2.27,2.27,0,0,0,2.33,1.91A2.23,2.23,0,0,0,7,12.34a1.67,1.67,0,0,0,.27-.71c.07-1.19,0-2.38,0-3.57C7.29,5.37,7.28,2.69,7.3,0Z" />
	</g>
</svg>