<svg class="svg-social-twitter" xmlns="http://www.w3.org/2000/svg" viewBox="0 0 24 19.08">
	<g>
		<path fill="currentColor"
			d="M21.56,4.77v.6a13.7,13.7,0,0,1-.91,4.83A13.81,13.81,0,0,1,18,14.61a14,14,0,0,1-4.4,3.23,13.78,13.78,0,0,1-6,1.24,15.31,15.31,0,0,1-2-.14,13.9,13.9,0,0,1-2-.41,13.11,13.11,0,0,1-1.84-.69A12.82,12.82,0,0,1,0,16.92l.59,0h.58a10.35,10.35,0,0,0,3.29-.53,9.11,9.11,0,0,0,2.85-1.53,4.63,4.63,0,0,1-2.88-1,5,5,0,0,1-1.76-2.39,2.61,2.61,0,0,0,.46.08h.48a4.83,4.83,0,0,0,.67,0,5,5,0,0,0,.64-.1A4.9,4.9,0,0,1,2.11,9.84,4.61,4.61,0,0,1,1,6.79V6.7a5.38,5.38,0,0,0,1,.43,4,4,0,0,0,1.16.16,4.7,4.7,0,0,1-1.6-1.68A4.64,4.64,0,0,1,1,3.3,4.47,4.47,0,0,1,1.17,2,5.57,5.57,0,0,1,1.69.87a13.11,13.11,0,0,0,2,2A14.17,14.17,0,0,0,6.12,4.41a13.93,13.93,0,0,0,2.72,1,14,14,0,0,0,3,.46c0-.19-.08-.37-.1-.55a3.48,3.48,0,0,1,0-.55,4.78,4.78,0,0,1,.38-1.88,5,5,0,0,1,1.06-1.53,4.79,4.79,0,0,1,1.56-1A4.78,4.78,0,0,1,16.59,0a5,5,0,0,1,2,.41,5.3,5.3,0,0,1,1.6,1.1,9.9,9.9,0,0,0,1.64-.44,8.61,8.61,0,0,0,1.5-.7,4.59,4.59,0,0,1-.84,1.51A5.31,5.31,0,0,1,21.19,3a11.65,11.65,0,0,0,1.43-.28A7.87,7.87,0,0,0,24,2.25,11.69,11.69,0,0,1,22.89,3.6,11.25,11.25,0,0,1,21.56,4.77Z" />
	</g>
</svg>