<svg class="svg-social-instagram" xmlns="http://www.w3.org/2000/svg" viewBox="0 0 22.76 22.76">
	<g>
		<path fill="currentColor"
			d="M22.68 16.07a6.78 6.78 0 01-1.84 4.77 6.76 6.76 0 01-4.76 1.84c-1.88.1-7.51.1-9.39 0a6.77 6.77 0 01-4.77-1.84 6.74 6.74 0 01-1.84-4.77C0 14.19 0 8.56.08 6.68a6.74 6.74 0 011.84-4.77A6.78 6.78 0 016.69.08C8.57 0 14.2 0 16.08.08a6.76 6.76 0 014.76 1.84 6.68 6.68 0 011.84 4.77c.11 1.88.11 7.5 0 9.38zm-2-4.69c0-1.66.14-5.21-.45-6.71a3.84 3.84 0 00-2.17-2.16c-1.49-.59-5.05-.46-6.71-.46s-5.21-.14-6.7.46a3.84 3.84 0 00-2.14 2.16c-.59 1.49-.45 5.05-.45 6.71s-.14 5.21.45 6.71a3.84 3.84 0 002.17 2.16c1.49.59 5.05.46 6.7.46s5.21.13 6.71-.46a3.87 3.87 0 002.17-2.16c.59-1.5.45-5.09.45-6.71zm-3.49 0a5.84 5.84 0 11-5.84-5.84 5.83 5.83 0 015.87 5.84zm-2 0a3.8 3.8 0 10-3.8 3.79 3.8 3.8 0 003.79-3.79zm2.28-4.71a1.37 1.37 0 111.36-1.36 1.36 1.36 0 01-1.37 1.36z" />
	</g>
</svg>