<svg class="svg-social-snapchat" xmlns="http://www.w3.org/2000/svg" viewBox="0 0 468.34 450.89">
	<g>
		<path fill="currentColor"
			d="M234,25c62.86,0,115.22,52.35,115.29,115.36,0,14.76.48,28.35,1.31,40.87a14.31,14.31,0,0,0,17.6,13.06l19.7-4.61a10.7,10.7,0,0,1,2.51-.3,11,11,0,0,1,10.73,8.48,14.5,14.5,0,0,1-9.36,16.81l-29.89,12.07a16.07,16.07,0,0,0-9.47,19.11c24,88.66,91,79.44,91,91,0,14.51-50.49,16.56-55,21.12s-.19,26.7-10.39,31a21.86,21.86,0,0,1-8,1.08c-7.68,0-18.54-1.49-30-1.49-9.92,0-20.29,1.12-29.4,5.33-24.18,11.17-47.49,32-76.38,32s-52.2-20.86-76.38-32c-9.11-4.21-19.48-5.33-29.4-5.33-11.44,0-22.3,1.49-30,1.49a22,22,0,0,1-8-1.08c-10.19-4.29-5.82-26.43-10.38-31s-55-6.61-55-21.12c0-11.55,67-2.33,91-91a16.09,16.09,0,0,0-9.48-19.12L76.59,214.67a14.5,14.5,0,0,1-9.35-16.81A11,11,0,0,1,78,189.38a11.31,11.31,0,0,1,2.51.29l19.69,4.62a14.36,14.36,0,0,0,17.61-13.06c.83-12.52,1.29-26.11,1.31-40.87C119.16,77.35,171.1,25,234,25m0-25h0a137,137,0,0,0-54.32,11.21A142.39,142.39,0,0,0,105.22,86a138.6,138.6,0,0,0-11.14,54.37c0,9.21-.2,18.16-.57,26.72l-7.32-1.72a36,36,0,0,0-43.35,27.11A39.51,39.51,0,0,0,67.64,238l21.94,8.85C75.05,291.46,48.27,300,30.23,305.76a89.6,89.6,0,0,0-12.85,4.79C1.69,318.34,0,331.53,0,336.83,0,347,4.81,356.28,13.55,363A57.81,57.81,0,0,0,30,371.35c9.18,3.16,19.82,5.16,28.47,6.77a64.1,64.1,0,0,0,2.07,10.12C64.85,402.65,73.91,409.1,80.74,412c6.49,2.73,13.2,3,17.67,3s9-.34,13.92-.7c5.25-.39,10.69-.79,16.06-.79,8.31,0,14.5,1,18.92,3,6.06,2.8,12.49,6.58,19.3,10.58,19,11.13,40.45,23.75,67.56,23.75s48.6-12.62,67.55-23.75c6.81-4,13.25-7.78,19.31-10.58,4.42-2,10.61-3,18.92-3,5.37,0,10.81.4,16.06.79,4.91.36,9.54.7,13.92.7s11.18-.31,17.67-3c6.83-2.88,15.88-9.33,20.17-23.74a64.1,64.1,0,0,0,2.07-10.12c8.65-1.61,19.29-3.61,28.47-6.77A57.81,57.81,0,0,0,454.79,363c8.74-6.68,13.55-16,13.55-26.13,0-5.3-1.69-18.49-17.38-26.27a88.41,88.41,0,0,0-12.85-4.8c-18-5.76-44.83-14.3-59.35-58.89L400.69,238a39.5,39.5,0,0,0,24.81-45.58,35.84,35.84,0,0,0-13-20.47,36.07,36.07,0,0,0-30.36-6.64l-7.33,1.72c-.36-8.56-.55-17.51-.57-26.72A137.74,137.74,0,0,0,363,85.9a142.83,142.83,0,0,0-74.69-74.71A137.4,137.4,0,0,0,234,0Z" />
	</g>
</svg>