<svg class="svg-social-whatsapp" xmlns="http://www.w3.org/2000/svg" viewBox="0 0 43 43.3">
	<path fill="currentColor"
		d="M13.7,1.7A20.75,20.75,0,0,1,21.9,0a21.12,21.12,0,0,1,8.2,1.7A20.94,20.94,0,0,1,41.3,12.9,20.75,20.75,0,0,1,43,21.1a21.12,21.12,0,0,1-1.7,8.2A20.94,20.94,0,0,1,30.1,40.5a20.75,20.75,0,0,1-8.2,1.7,21.48,21.48,0,0,1-10.2-2.6L0,43.3,3.8,32a20.55,20.55,0,0,1-3-10.9,21.12,21.12,0,0,1,1.7-8.2A20.79,20.79,0,0,1,7,6.2,21.32,21.32,0,0,1,13.7,1.7Zm8.1,36.9a17.6,17.6,0,0,0,6.8-1.4,18.21,18.21,0,0,0,5.6-3.7,15.66,15.66,0,0,0,3.7-5.6,17.21,17.21,0,0,0,0-13.6,18.21,18.21,0,0,0-3.7-5.6A15.66,15.66,0,0,0,28.6,5,17.21,17.21,0,0,0,15,5,18.21,18.21,0,0,0,9.4,8.7a15.66,15.66,0,0,0-3.7,5.6,17.6,17.6,0,0,0-1.4,6.8A17.32,17.32,0,0,0,7.6,31.4L5.4,37.9l6.8-2.1A17.34,17.34,0,0,0,21.8,38.6ZM26,25.2c.7-.9,1.2-1.4,1.5-1.4A15,15,0,0,1,30.2,25a9.23,9.23,0,0,1,2.5,1.5c0,.1.1.2.1.4a6.32,6.32,0,0,1-.5,2.1,4,4,0,0,1-2,1.8,6.4,6.4,0,0,1-2.8.7c-1.1,0-2.8-.6-5.3-1.7a14.27,14.27,0,0,1-4.7-3.3,41.06,41.06,0,0,1-4.1-5.2,10.32,10.32,0,0,1-2-5.4v-.2a6,6,0,0,1,2.1-4.4,2,2,0,0,1,1.5-.6h1a1,1,0,0,1,.7.2,1.91,1.91,0,0,1,.4.8c.1.4.5,1.2.9,2.5a13.92,13.92,0,0,1,.7,2.1c0,.4-.3.9-1,1.6s-1,1.1-1,1.3a.6.6,0,0,0,.1.4,12.44,12.44,0,0,0,2.8,3.8,16.09,16.09,0,0,0,4.2,2.8,1.42,1.42,0,0,0,.6.2C24.8,26.5,25.3,26.1,26,25.2Z" />
</svg>