<?xml version="1.0" encoding="utf-8"?>
<!-- Generator: Adobe Illustrator 25.2.3, SVG Export Plug-In . SVG Version: 6.00 Build 0)  -->
<svg version="1.1" id="Layer_1" xmlns="http://www.w3.org/2000/svg" xmlns:xlink="http://www.w3.org/1999/xlink" x="0px" y="0px"
	 viewBox="0 0 98.9 34.5" style="enable-background:new 0 0 98.9 34.5;" xml:space="preserve">
<style type="text/css">
	.st0{fill:#FFFFFF;}
</style>
<g id="OSyPwk">
	<path class="st0" d="M94.1,27c-1.4,0.1-2.8,0.3-4.1,0.3c-4,0-7.4-3.1-7.8-7c-0.3-2.6-0.2-5.1,1.1-7.4c1.9-3.6,5.7-4.8,9.4-4.5
		c1.7,0.1,3.4,0.5,5.2,0.8c0.8,0.1,1.1,0.5,1.1,1.3c0,5,0,10,0,15c0,1.3-0.2,2.6-0.5,3.9C97.4,32.6,95,34,92,34.3
		c-2.7,0.4-5.5,0.2-8.1-0.7c-0.8-0.3-1-0.7-0.8-1.4c0.2-0.7,0.3-1.5,0.5-2.2c0.1-0.8,0.5-0.8,1.2-0.6c2.2,0.8,4.5,1.2,6.9,0.7
		C93.2,29.8,94.1,28.7,94.1,27z M94.2,17.7c0-1.3,0-2.7,0-4c0-0.3-0.4-0.9-0.7-0.9c-1.1-0.1-2.3-0.1-3.4,0.1
		c-2.4,0.5-3.1,2.5-3.2,4.6c-0.2,1.9,0.1,3.8,1.8,5.1c1.5,1.1,3.1,0.8,4.7,0.2c0.5-0.1,0.9-0.6,0.8-1.2C94.1,20.3,94.2,19,94.2,17.7
		L94.2,17.7z"/>
	<path class="st0" d="M53.9,9c0-0.5,0.1-0.8,0.1-1.2c0-1.5,0-3.1,0-4.6c0-3.1-0.3-2.4,2.6-3c2.2-0.4,2.2-0.4,2.2,1.9
		c0,8,0,15.9,0,23.9c0,1.1-0.4,1.6-1.5,1.8c-2.5,0.5-5,0.7-7.5,0.6c-4.2-0.2-8-3.9-8.2-8.3c-0.1-1.9,0-3.9,0.5-5.8
		c1.3-4.5,5.8-6.9,10.4-5.7C52.9,8.7,53.3,8.8,53.9,9z M53.9,18.7c0-1.4,0-2.9,0-4.3c0-0.3-0.1-0.8-0.4-1c-2.2-1.3-6.2-1.4-7,2.6
		c-0.2,1-0.3,2-0.2,3c0.1,3.9,2.8,5.9,6.6,5.2c0.7-0.1,1-0.4,1-1.1C53.9,21.6,53.9,20.1,53.9,18.7L53.9,18.7z"/>
	<path class="st0" d="M80,18.4c-0.1,3.9-1.4,7.2-4.9,9c-5.2,2.7-12,0.3-13.2-6.8c-0.6-2.7-0.1-5.6,1.3-8c1.9-3.4,5-4.6,8.7-4.3
		c3.6,0.3,6.5,2.8,7.5,6.5C79.7,16,79.9,17.2,80,18.4z M75.3,18.6c-0.1-1-0.3-2.1-0.6-3.1c-0.5-1.5-1.5-2.6-3.1-2.8
		c-1.9-0.2-3.4,0.4-4.3,2.1c-1.1,2.3-1.1,4.9,0,7.2c0.6,1.5,2.1,2.4,3.7,2.2c1.7-0.1,2.9-0.8,3.5-2.4C74.8,20.8,75.1,19.7,75.3,18.6
		L75.3,18.6z"/>
	<path class="st0" d="M27.3,28c-1.4,0-2.7,0-4,0c-0.8,0-0.6-0.7-0.6-1.2c0-5.4,0-10.8,0-16.2c0-0.1-0.1-0.3,0-0.4
		c0.2-0.3,0.4-0.8,0.7-0.9c3.3-0.7,6.5-1.4,9.9-0.6c2.8,0.7,4.9,2.8,5,5.7c0.2,4.3,0.2,8.6,0.2,12.8c0,0.3-0.4,0.7-0.7,0.7
		c-0.9,0.1-1.9,0-2.8,0.1c-0.7,0-1-0.3-1-1.1c0-3.1,0-6.3,0-9.4c0-1-0.2-1.9-0.4-2.9c-0.3-1.3-1.2-2-2.6-2c-0.8,0-1.7,0-2.5,0
		c-0.8,0-1.2,0.4-1.2,1.3c0,4.2,0,8.4,0,12.5L27.3,28z"/>
	<path class="st0" d="M0,13.5c0-2.9,0-5.7,0-8.6c0-0.8,0.3-1.2,1-1.2c0.9-0.1,1.7-0.2,2.6-0.4c0.7-0.2,1,0.1,1,0.8
		c0,1.2,0.1,2.3,0,3.5c-0.1,1,0.3,1.3,1.3,1.2c1.5-0.1,3,0,4.5,0c0.7,0,1,0.3,1,1c0,0.7,0,1.5,0,2.2c0,0.7-0.3,1-1,1
		c-1.6,0-3.2,0-4.8,0c-0.3,0-0.9,0.4-0.9,0.6c0,2.9-0.1,5.7,0.1,8.6c0.1,1.7,1.2,2.4,2.9,2.2c0.9-0.1,1.8-0.4,2.6-0.7
		c0.8-0.3,1.1,0,1.2,0.7c0.1,0.4,0.2,0.9,0.3,1.3c0.4,1.7,0.4,1.7-1.2,2.3c-2,0.7-4.3,0.8-6.4,0.2c-2.6-0.7-4.1-2.8-4.2-6
		C0,19.2,0,16.4,0,13.5L0,13.5z"/>
	<path class="st0" d="M18.6,18.5c0,2.8,0,5.6,0,8.5c0,0.8-0.3,1.2-1.1,1.1c-0.9,0-1.7,0-2.6,0c-0.8,0-1.1-0.4-1.1-1.2
		c0-5.7,0-11.4,0-17c0-0.9,0.3-1.2,1.2-1.1c0.8,0,1.6,0,2.4,0c0.8,0,1.2,0.3,1.2,1.1C18.6,12.8,18.6,15.6,18.6,18.5z"/>
	<path class="st0" d="M16.3,1.4c1.4-0.1,2.7,1,2.8,2.5c0,0.1,0,0.2,0,0.2C19.1,5.7,18,7,16.4,7c-1.5,0.1-2.8-1.1-2.9-2.6
		c0-0.1,0-0.1,0-0.2c0-1.5,1.1-2.7,2.6-2.8C16.2,1.4,16.2,1.4,16.3,1.4z"/>
</g>
</svg>
