<?xml version="1.0" encoding="utf-8"?>
<!-- Generator: Adobe Illustrator 25.2.3, SVG Export Plug-In . SVG Version: 6.00 Build 0)  -->
<svg version="1.1" id="Layer_1" xmlns="http://www.w3.org/2000/svg" xmlns:xlink="http://www.w3.org/1999/xlink" x="0px" y="0px"
	 viewBox="0 0 512 512" style="enable-background:new 0 0 512 512;" xml:space="preserve">
<style type="text/css">
	.st0{fill:url(#SVGID_1_);}
</style>
<g>
	
		<linearGradient id="SVGID_1_" gradientUnits="userSpaceOnUse" x1="67.7223" y1="296.6183" x2="480.318" y2="162.8961" gradientTransform="matrix(0.9958 9.126525e-02 -9.126525e-02 0.9958 24.3316 -20.0943)">
		<stop  offset="0" style="stop-color:#FF4C68"/>
		<stop  offset="6.852923e-02" style="stop-color:#FD5469"/>
		<stop  offset="0.4051" style="stop-color:#F37570"/>
		<stop  offset="0.5896" style="stop-color:#EF8172"/>
	</linearGradient>
	<path class="st0" d="M321,85.4c3.8,1.6,10.5-0.3,14.6-2.6c6.8-3.3,10.1-9.5,14.4-14.3c23.8-31.7,59.9-54.5,99.5-60
		c7.9,28.2-6.6,58-13.3,87.5c-10.6,44.7-1.8,91.1,1.9,135.8c3.6,46,3.8,72.1-24.3,108.6c-22.2,27.9-61.6,73.9-61.1,110.4
		c0.2,11.7,3,25.1-4.3,33.5c-23.3,26.6-68.7,23.7-83,21.1c-24.3-4.9-38.8-32.3-45.8-56.4c-2.9-10.7-26.6-37.7-34.1-41
		c-32.6-14.7-77.9-76.2-89.2-109.9s1-82.1-6.3-116.6C75.4,100.7,31.7,77.1,55.3,4.9c60.3,12.1,80,38.7,115.9,88.9
		C171.9,73,264,51.5,321,85.4z"/>
</g>
</svg>
